<?xml version="1.0" standalone="no"?>
<!DOCTYPE svg PUBLIC "-//W3C//DTD SVG 20010904//EN"
 "http://www.w3.org/TR/2001/REC-SVG-20010904/DTD/svg10.dtd">
<svg version="1.0" xmlns="http://www.w3.org/2000/svg"
 width="64.000000pt" height="64.000000pt" viewBox="0 0 64.000000 64.000000"
 preserveAspectRatio="xMidYMid meet">

<g transform="translate(0.000000,64.000000) scale(0.100000,-0.100000)"
fill="#000000" stroke="none">
<path d="M280 587 c-38 -19 -61 -73 -55 -130 3 -41 -1 -57 -26 -102 -16 -29
-33 -72 -37 -96 -6 -34 -15 -48 -42 -67 -29 -19 -34 -29 -35 -63 -1 -45 3 -50
65 -71 25 -8 53 -18 62 -22 11 -5 24 0 37 13 27 27 135 31 145 6 3 -8 17 -15
32 -15 24 0 39 9 112 66 l27 22 -23 18 c-17 14 -25 35 -32 82 -7 48 -19 79
-49 126 -27 41 -46 86 -57 133 -9 39 -23 78 -32 86 -26 22 -64 28 -92 14z m78
-23 c12 -8 22 -22 22 -31 0 -11 -3 -13 -13 -5 -7 6 -32 10 -55 9 -48 -1 -60 6
-42 28 16 19 59 19 88 -1z m-70 -67 c3 -20 0 -25 -11 -21 -9 3 -16 -3 -20 -15
-8 -33 -27 -24 -27 12 0 58 52 80 58 24z m78 5 c14 -29 7 -63 -12 -55 -8 3
-14 12 -14 20 0 13 -3 13 -15 3 -13 -11 -15 -8 -15 17 0 16 3 33 7 37 13 12
37 1 49 -22z m-47 -53 c36 -13 39 -24 12 -39 -46 -24 -94 -1 -64 32 9 10 17
18 18 18 1 0 16 -5 34 -11z m128 -99 c52 -78 61 -141 23 -165 -16 -10 -20 -4
-36 66 -8 35 -27 85 -43 110 -26 43 -27 48 -13 74 l14 28 12 -34 c7 -19 26
-55 43 -79z m-227 -14 c-16 -32 -30 -71 -30 -88 0 -17 -4 -27 -10 -23 -5 3
-10 14 -10 25 0 22 73 166 77 153 2 -6 -10 -36 -27 -67z m153 27 c44 -64 62
-142 37 -158 -5 -3 -10 -21 -10 -38 0 -71 -6 -77 -75 -77 -49 0 -64 4 -69 16
-4 10 1 22 11 30 17 13 15 16 -20 47 -28 24 -37 40 -37 63 0 42 53 140 74 136
9 -2 24 2 34 7 25 15 27 14 55 -26z m-158 -208 c61 -94 43 -120 -57 -88 l-61
20 -1 42 c-1 25 4 41 10 41 7 0 22 9 35 20 13 10 27 19 32 20 4 0 23 -25 42
-55z m238 5 c8 0 20 7 27 15 17 20 30 19 30 -4 0 -10 9 -25 21 -32 19 -13 18
-16 -36 -52 -79 -53 -91 -48 -87 33 4 74 12 93 23 62 5 -12 15 -22 22 -22z
m-195 -6 c2 -1 -1 -5 -7 -8 -5 -4 -15 4 -22 16 -12 22 -11 22 7 8 10 -8 20
-15 22 -16z"/>
</g>
</svg>
